<?xml version="1.0" encoding="UTF-8"?><svg xmlns="http://www.w3.org/2000/svg" xmlns:xlink="http://www.w3.org/1999/xlink" contentScriptType="text/ecmascript" width="375pt" zoomAndPan="magnify" contentStyleType="text/css" viewBox="0 0 375 149.999998" height="149.999998pt" preserveAspectRatio="xMidYMid meet" version="1.2"><defs><g/><clipPath xml:id="clip1" id="clip1"><path d="M 7.5 38.179688 L 102.75 38.179688 L 102.75 107 L 7.5 107 Z M 7.5 38.179688 "/></clipPath><clipPath xml:id="clip2" id="clip2"><path d="M 29 112 L 81 112 L 81 121.429688 L 29 121.429688 Z M 29 112 "/></clipPath><clipPath xml:id="clip3" id="clip3"><path d="M 35 38.179688 L 45 38.179688 L 45 48 L 35 48 Z M 35 38.179688 "/></clipPath><clipPath xml:id="clip4" id="clip4"><path d="M 47 38.179688 L 57 38.179688 L 57 48 L 47 48 Z M 47 38.179688 "/></clipPath></defs><g xml:id="surface1" id="surface1"><g clip-rule="nonzero" clip-path="url(#clip1)"><path style=" stroke:none;fill-rule:nonzero;fill:rgb(0%,76.078796%,79.60968%);fill-opacity:1;" d="M 98.285156 106.5625 L 11.964844 106.5625 C 11.671875 106.5625 11.382812 106.535156 11.09375 106.476562 C 10.808594 106.421875 10.527344 106.335938 10.257812 106.222656 C 9.984375 106.109375 9.730469 105.972656 9.484375 105.8125 C 9.242188 105.648438 9.015625 105.464844 8.808594 105.257812 C 8.601562 105.050781 8.417969 104.824219 8.253906 104.582031 C 8.089844 104.335938 7.953125 104.082031 7.839844 103.808594 C 7.726562 103.539062 7.644531 103.261719 7.585938 102.972656 C 7.53125 102.6875 7.5 102.394531 7.5 102.101562 L 7.5 42.640625 C 7.5 42.347656 7.53125 42.054688 7.585938 41.769531 C 7.644531 41.480469 7.726562 41.203125 7.839844 40.933594 C 7.953125 40.660156 8.089844 40.40625 8.253906 40.160156 C 8.417969 39.917969 8.601562 39.691406 8.808594 39.484375 C 9.015625 39.277344 9.242188 39.09375 9.484375 38.929688 C 9.730469 38.769531 9.984375 38.628906 10.257812 38.519531 C 10.527344 38.40625 10.808594 38.320312 11.09375 38.265625 C 11.382812 38.207031 11.671875 38.179688 11.964844 38.179688 L 29.824219 38.179688 L 29.824219 41.152344 L 11.964844 41.152344 C 11.769531 41.152344 11.578125 41.191406 11.394531 41.265625 C 11.214844 41.339844 11.054688 41.449219 10.914062 41.585938 C 10.773438 41.726562 10.667969 41.886719 10.589844 42.070312 C 10.515625 42.25 10.476562 42.441406 10.476562 42.640625 L 10.476562 102.101562 C 10.476562 102.300781 10.515625 102.488281 10.589844 102.671875 C 10.667969 102.855469 10.773438 103.015625 10.914062 103.152344 C 11.054688 103.292969 11.214844 103.402344 11.394531 103.476562 C 11.578125 103.550781 11.769531 103.589844 11.964844 103.589844 L 98.285156 103.589844 C 98.480469 103.589844 98.671875 103.550781 98.855469 103.476562 C 99.035156 103.402344 99.195312 103.292969 99.335938 103.152344 C 99.476562 103.015625 99.582031 102.855469 99.660156 102.671875 C 99.734375 102.488281 99.773438 102.300781 99.773438 102.101562 L 99.773438 42.640625 C 99.773438 42.441406 99.734375 42.25 99.660156 42.070312 C 99.582031 41.886719 99.476562 41.726562 99.335938 41.585938 C 99.195312 41.449219 99.035156 41.339844 98.855469 41.265625 C 98.671875 41.191406 98.480469 41.152344 98.285156 41.152344 L 64.054688 41.152344 L 64.054688 38.179688 L 98.285156 38.179688 C 98.578125 38.179688 98.867188 38.207031 99.15625 38.265625 C 99.441406 38.320312 99.722656 38.40625 99.992188 38.519531 C 100.265625 38.628906 100.519531 38.769531 100.765625 38.929688 C 101.007812 39.09375 101.234375 39.277344 101.441406 39.484375 C 101.648438 39.691406 101.832031 39.917969 101.996094 40.160156 C 102.160156 40.40625 102.296875 40.660156 102.410156 40.933594 C 102.519531 41.203125 102.605469 41.480469 102.664062 41.769531 C 102.71875 42.054688 102.75 42.347656 102.75 42.640625 L 102.75 102.101562 C 102.75 102.394531 102.71875 102.6875 102.664062 102.972656 C 102.605469 103.261719 102.519531 103.539062 102.410156 103.808594 C 102.296875 104.082031 102.160156 104.335938 101.996094 104.582031 C 101.832031 104.824219 101.648438 105.050781 101.441406 105.257812 C 101.234375 105.464844 101.007812 105.648438 100.765625 105.8125 C 100.519531 105.972656 100.265625 106.109375 99.992188 106.222656 C 99.722656 106.335938 99.441406 106.421875 99.15625 106.476562 C 98.867188 106.535156 98.578125 106.5625 98.285156 106.5625 Z M 98.285156 106.5625 "/></g><path style=" stroke:none;fill-rule:nonzero;fill:rgb(0%,76.078796%,79.60968%);fill-opacity:1;" d="M 95.308594 100.617188 L 14.941406 100.617188 C 14.746094 100.617188 14.554688 100.578125 14.371094 100.503906 C 14.191406 100.429688 14.03125 100.320312 13.890625 100.179688 C 13.75 100.042969 13.644531 99.878906 13.566406 99.699219 C 13.492188 99.515625 13.453125 99.328125 13.453125 99.128906 L 13.453125 45.613281 C 13.453125 45.414062 13.492188 45.226562 13.566406 45.042969 C 13.644531 44.859375 13.75 44.699219 13.890625 44.5625 C 14.03125 44.421875 14.191406 44.3125 14.371094 44.238281 C 14.554688 44.164062 14.746094 44.125 14.941406 44.125 L 29.824219 44.125 L 29.824219 47.097656 L 16.429688 47.097656 L 16.429688 97.644531 L 93.820312 97.644531 L 93.820312 47.097656 L 64.054688 47.097656 L 64.054688 44.125 L 95.308594 44.125 C 95.503906 44.125 95.695312 44.164062 95.878906 44.238281 C 96.058594 44.3125 96.21875 44.421875 96.359375 44.5625 C 96.5 44.699219 96.605469 44.859375 96.683594 45.042969 C 96.757812 45.226562 96.796875 45.414062 96.796875 45.613281 L 96.796875 99.128906 C 96.796875 99.328125 96.757812 99.515625 96.683594 99.699219 C 96.605469 99.878906 96.5 100.042969 96.359375 100.179688 C 96.21875 100.320312 96.058594 100.429688 95.878906 100.503906 C 95.695312 100.578125 95.503906 100.617188 95.308594 100.617188 Z M 95.308594 100.617188 "/><path style=" stroke:none;fill-rule:nonzero;fill:rgb(0%,76.078796%,79.60968%);fill-opacity:1;" d="M 74.472656 115.484375 L 35.777344 115.484375 C 35.539062 115.480469 35.3125 115.425781 35.101562 115.320312 C 34.886719 115.210938 34.710938 115.058594 34.570312 114.863281 C 34.429688 114.671875 34.34375 114.457031 34.308594 114.21875 C 34.273438 113.984375 34.292969 113.753906 34.367188 113.527344 L 37.34375 104.605469 C 37.445312 104.304688 37.625 104.058594 37.882812 103.871094 C 38.144531 103.683594 38.433594 103.589844 38.753906 103.589844 L 71.496094 103.589844 C 71.816406 103.589844 72.105469 103.683594 72.367188 103.871094 C 72.625 104.058594 72.804688 104.304688 72.90625 104.605469 L 75.882812 113.527344 C 75.957031 113.753906 75.976562 113.984375 75.941406 114.21875 C 75.90625 114.457031 75.820312 114.671875 75.679688 114.863281 C 75.539062 115.058594 75.363281 115.210938 75.148438 115.320312 C 74.9375 115.425781 74.710938 115.480469 74.472656 115.484375 Z M 37.84375 112.507812 L 72.40625 112.507812 L 70.421875 106.5625 L 39.828125 106.5625 Z M 37.84375 112.507812 "/><g clip-rule="nonzero" clip-path="url(#clip2)"><path style=" stroke:none;fill-rule:nonzero;fill:rgb(0%,76.078796%,79.60968%);fill-opacity:1;" d="M 78.9375 121.429688 L 31.3125 121.429688 C 31.117188 121.429688 30.925781 121.390625 30.742188 121.316406 C 30.5625 121.242188 30.398438 121.132812 30.261719 120.992188 C 30.121094 120.855469 30.011719 120.691406 29.9375 120.511719 C 29.863281 120.328125 29.824219 120.140625 29.824219 119.941406 L 29.824219 113.996094 C 29.824219 113.796875 29.863281 113.609375 29.9375 113.425781 C 30.011719 113.246094 30.121094 113.085938 30.261719 112.945312 C 30.398438 112.804688 30.5625 112.699219 30.742188 112.621094 C 30.925781 112.546875 31.117188 112.507812 31.3125 112.507812 L 78.9375 112.507812 C 79.132812 112.507812 79.324219 112.546875 79.507812 112.621094 C 79.6875 112.699219 79.851562 112.804688 79.988281 112.945312 C 80.128906 113.085938 80.238281 113.246094 80.3125 113.425781 C 80.386719 113.609375 80.425781 113.796875 80.425781 113.996094 L 80.425781 119.941406 C 80.425781 120.140625 80.386719 120.328125 80.3125 120.511719 C 80.238281 120.691406 80.128906 120.855469 79.988281 120.992188 C 79.851562 121.132812 79.6875 121.242188 79.507812 121.316406 C 79.324219 121.390625 79.132812 121.429688 78.9375 121.429688 Z M 32.800781 118.457031 L 77.449219 118.457031 L 77.449219 115.484375 L 32.800781 115.484375 Z M 32.800781 118.457031 "/></g><path style=" stroke:none;fill-rule:nonzero;fill:rgb(0%,76.078796%,79.60968%);fill-opacity:1;" d="M 49.171875 73.859375 L 43.21875 73.859375 C 43.023438 73.859375 42.832031 73.820312 42.648438 73.746094 C 42.46875 73.667969 42.304688 73.5625 42.167969 73.421875 C 42.027344 73.28125 41.917969 73.121094 41.84375 72.941406 C 41.769531 72.757812 41.730469 72.566406 41.730469 72.371094 L 41.730469 67.265625 C 39.128906 66.507812 36.820312 65.222656 34.796875 63.421875 C 34.539062 63.195312 34.375 62.910156 34.3125 62.570312 C 34.25 62.234375 34.300781 61.910156 34.460938 61.605469 L 36.992188 56.808594 C 37.097656 56.609375 37.242188 56.441406 37.425781 56.304688 C 37.609375 56.171875 37.8125 56.082031 38.035156 56.042969 C 38.261719 56 38.484375 56.011719 38.703125 56.070312 C 38.921875 56.132812 39.117188 56.238281 39.289062 56.386719 C 39.75 56.824219 40.25 57.214844 40.785156 57.558594 C 41.320312 57.898438 41.886719 58.1875 42.476562 58.425781 C 43.066406 58.660156 43.675781 58.835938 44.300781 58.957031 C 44.925781 59.078125 45.554688 59.136719 46.191406 59.136719 C 46.828125 59.136719 47.460938 59.078125 48.085938 58.957031 C 48.710938 58.835938 49.316406 58.660156 49.910156 58.425781 C 50.5 58.1875 51.0625 57.898438 51.601562 57.558594 C 52.136719 57.214844 52.632812 56.824219 53.097656 56.386719 C 53.269531 56.238281 53.464844 56.132812 53.683594 56.070312 C 53.902344 56.011719 54.125 56 54.347656 56.042969 C 54.574219 56.082031 54.777344 56.171875 54.960938 56.304688 C 55.144531 56.441406 55.289062 56.609375 55.394531 56.808594 L 57.925781 61.605469 C 58.085938 61.910156 58.132812 62.234375 58.070312 62.570312 C 58.007812 62.910156 57.847656 63.195312 57.585938 63.421875 C 55.566406 65.222656 53.257812 66.503906 50.660156 67.265625 L 50.660156 72.371094 C 50.660156 72.566406 50.621094 72.757812 50.546875 72.941406 C 50.472656 73.121094 50.363281 73.28125 50.222656 73.421875 C 50.085938 73.5625 49.925781 73.667969 49.742188 73.746094 C 49.558594 73.820312 49.371094 73.859375 49.171875 73.859375 Z M 44.707031 70.882812 L 47.683594 70.882812 L 47.683594 66.105469 C 47.683594 65.753906 47.796875 65.4375 48.019531 65.167969 C 48.242188 64.894531 48.527344 64.722656 48.875 64.652344 C 51.035156 64.1875 52.988281 63.277344 54.734375 61.921875 L 53.59375 59.761719 C 53.058594 60.140625 52.492188 60.476562 51.902344 60.765625 C 51.316406 61.058594 50.707031 61.304688 50.078125 61.503906 C 49.453125 61.703125 48.8125 61.851562 48.164062 61.949219 C 47.511719 62.050781 46.859375 62.101562 46.203125 62.101562 C 45.542969 62.101562 44.890625 62.050781 44.238281 61.949219 C 43.589844 61.851562 42.949219 61.703125 42.324219 61.503906 C 41.695312 61.304688 41.089844 61.058594 40.5 60.765625 C 39.910156 60.476562 39.34375 60.140625 38.808594 59.761719 L 37.667969 61.921875 C 39.410156 63.273438 41.359375 64.183594 43.515625 64.652344 C 43.863281 64.722656 44.148438 64.894531 44.371094 65.167969 C 44.59375 65.4375 44.707031 65.753906 44.707031 66.105469 Z M 44.707031 70.882812 "/><path style=" stroke:none;fill-rule:nonzero;fill:rgb(0%,76.078796%,79.60968%);fill-opacity:1;" d="M 56.175781 61.527344 L 54.074219 59.425781 L 58.101562 55.402344 L 58.101562 44.125 L 55.125 44.125 L 55.125 41.152344 L 59.589844 41.152344 C 59.789062 41.152344 59.976562 41.191406 60.160156 41.265625 C 60.339844 41.339844 60.503906 41.449219 60.640625 41.585938 C 60.78125 41.726562 60.890625 41.886719 60.964844 42.070312 C 61.039062 42.25 61.078125 42.441406 61.078125 42.640625 L 61.078125 56.019531 C 61.078125 56.429688 60.933594 56.777344 60.640625 57.070312 Z M 56.175781 61.527344 "/><path style=" stroke:none;fill-rule:nonzero;fill:rgb(0%,76.078796%,79.60968%);fill-opacity:1;" d="M 36.214844 61.527344 L 31.75 57.070312 C 31.457031 56.777344 31.3125 56.429688 31.3125 56.019531 L 31.3125 42.640625 C 31.3125 42.441406 31.351562 42.25 31.425781 42.070312 C 31.5 41.886719 31.609375 41.726562 31.75 41.585938 C 31.886719 41.449219 32.050781 41.339844 32.230469 41.265625 C 32.414062 41.191406 32.605469 41.152344 32.800781 41.152344 L 37.265625 41.152344 L 37.265625 44.125 L 34.289062 44.125 L 34.289062 55.402344 L 38.316406 59.425781 Z M 36.214844 61.527344 "/><g clip-rule="nonzero" clip-path="url(#clip3)"><path style=" stroke:none;fill-rule:nonzero;fill:rgb(0%,76.078796%,79.60968%);fill-opacity:1;" d="M 40.242188 47.097656 L 37.265625 47.097656 C 37.070312 47.097656 36.878906 47.0625 36.695312 46.984375 C 36.515625 46.910156 36.351562 46.800781 36.214844 46.664062 C 36.074219 46.523438 35.964844 46.363281 35.890625 46.179688 C 35.816406 46 35.777344 45.808594 35.777344 45.613281 L 35.777344 39.664062 C 35.777344 39.46875 35.816406 39.277344 35.890625 39.097656 C 35.964844 38.914062 36.074219 38.753906 36.214844 38.613281 C 36.351562 38.476562 36.515625 38.367188 36.695312 38.292969 C 36.878906 38.214844 37.070312 38.179688 37.265625 38.179688 L 40.242188 38.179688 C 40.535156 38.179688 40.824219 38.207031 41.113281 38.265625 C 41.402344 38.320312 41.679688 38.40625 41.949219 38.519531 C 42.222656 38.628906 42.480469 38.769531 42.722656 38.929688 C 42.964844 39.09375 43.191406 39.277344 43.398438 39.484375 C 43.605469 39.691406 43.792969 39.917969 43.953125 40.160156 C 44.117188 40.40625 44.253906 40.660156 44.367188 40.933594 C 44.480469 41.203125 44.5625 41.480469 44.621094 41.769531 C 44.679688 42.054688 44.707031 42.347656 44.707031 42.640625 C 44.707031 42.929688 44.679688 43.222656 44.621094 43.507812 C 44.5625 43.796875 44.480469 44.074219 44.367188 44.34375 C 44.253906 44.617188 44.117188 44.871094 43.953125 45.117188 C 43.792969 45.359375 43.605469 45.585938 43.398438 45.792969 C 43.191406 46 42.964844 46.183594 42.722656 46.347656 C 42.480469 46.507812 42.222656 46.648438 41.949219 46.757812 C 41.679688 46.871094 41.402344 46.957031 41.113281 47.011719 C 40.824219 47.070312 40.535156 47.097656 40.242188 47.097656 Z M 38.753906 44.125 L 40.242188 44.125 C 40.441406 44.125 40.628906 44.085938 40.8125 44.011719 C 40.996094 43.9375 41.15625 43.828125 41.292969 43.691406 C 41.433594 43.550781 41.542969 43.390625 41.617188 43.207031 C 41.691406 43.027344 41.730469 42.835938 41.730469 42.640625 C 41.730469 42.441406 41.691406 42.25 41.617188 42.070312 C 41.542969 41.886719 41.433594 41.726562 41.292969 41.585938 C 41.15625 41.449219 40.996094 41.339844 40.8125 41.265625 C 40.628906 41.191406 40.441406 41.152344 40.242188 41.152344 L 38.753906 41.152344 Z M 38.753906 44.125 "/></g><g clip-rule="nonzero" clip-path="url(#clip4)"><path style=" stroke:none;fill-rule:nonzero;fill:rgb(0%,76.078796%,79.60968%);fill-opacity:1;" d="M 55.125 47.097656 L 52.148438 47.097656 C 51.855469 47.097656 51.566406 47.070312 51.277344 47.011719 C 50.988281 46.957031 50.710938 46.871094 50.441406 46.757812 C 50.167969 46.648438 49.910156 46.507812 49.667969 46.347656 C 49.425781 46.183594 49.199219 46 48.992188 45.792969 C 48.785156 45.585938 48.597656 45.359375 48.4375 45.117188 C 48.273438 44.871094 48.136719 44.617188 48.023438 44.34375 C 47.910156 44.074219 47.828125 43.796875 47.769531 43.507812 C 47.710938 43.222656 47.683594 42.929688 47.683594 42.640625 C 47.683594 42.347656 47.710938 42.054688 47.769531 41.769531 C 47.828125 41.480469 47.910156 41.203125 48.023438 40.933594 C 48.136719 40.660156 48.273438 40.40625 48.4375 40.160156 C 48.597656 39.917969 48.785156 39.691406 48.992188 39.484375 C 49.199219 39.277344 49.425781 39.09375 49.667969 38.929688 C 49.910156 38.769531 50.167969 38.628906 50.441406 38.519531 C 50.710938 38.40625 50.988281 38.320312 51.277344 38.265625 C 51.566406 38.207031 51.855469 38.179688 52.148438 38.179688 L 55.125 38.179688 C 55.324219 38.179688 55.511719 38.214844 55.695312 38.292969 C 55.875 38.367188 56.039062 38.476562 56.175781 38.613281 C 56.316406 38.753906 56.425781 38.914062 56.5 39.097656 C 56.574219 39.277344 56.613281 39.46875 56.613281 39.664062 L 56.613281 45.613281 C 56.613281 45.808594 56.574219 46 56.5 46.179688 C 56.425781 46.363281 56.316406 46.523438 56.175781 46.664062 C 56.039062 46.800781 55.875 46.910156 55.695312 46.984375 C 55.511719 47.0625 55.324219 47.097656 55.125 47.097656 Z M 52.148438 41.152344 C 51.949219 41.152344 51.761719 41.191406 51.578125 41.265625 C 51.398438 41.339844 51.234375 41.449219 51.097656 41.585938 C 50.957031 41.726562 50.847656 41.886719 50.773438 42.070312 C 50.699219 42.25 50.660156 42.441406 50.660156 42.640625 C 50.660156 42.835938 50.699219 43.027344 50.773438 43.207031 C 50.847656 43.390625 50.957031 43.550781 51.097656 43.691406 C 51.234375 43.828125 51.398438 43.9375 51.578125 44.011719 C 51.761719 44.085938 51.949219 44.125 52.148438 44.125 L 53.636719 44.125 L 53.636719 41.152344 Z M 52.148438 41.152344 "/></g><path style=" stroke:none;fill-rule:nonzero;fill:rgb(0%,76.078796%,79.60968%);fill-opacity:1;" d="M 68.519531 82.777344 C 67.835938 82.777344 67.15625 82.710938 66.488281 82.578125 C 65.816406 82.445312 65.164062 82.246094 64.53125 81.984375 C 63.902344 81.722656 63.300781 81.402344 62.730469 81.023438 C 62.164062 80.644531 61.636719 80.210938 61.152344 79.730469 C 60.667969 79.246094 60.238281 78.71875 59.855469 78.152344 C 59.476562 77.585938 59.15625 76.984375 58.894531 76.351562 C 58.632812 75.722656 58.433594 75.070312 58.300781 74.402344 C 58.167969 73.730469 58.101562 73.054688 58.101562 72.371094 C 58.101562 71.6875 58.167969 71.011719 58.300781 70.339844 C 58.433594 69.671875 58.632812 69.019531 58.894531 68.386719 C 59.15625 67.757812 59.476562 67.15625 59.855469 66.589844 C 60.238281 66.019531 60.667969 65.496094 61.152344 65.011719 C 61.636719 64.53125 62.164062 64.097656 62.730469 63.71875 C 63.300781 63.339844 63.902344 63.019531 64.53125 62.757812 C 65.164062 62.496094 65.816406 62.296875 66.488281 62.164062 C 67.15625 62.03125 67.835938 61.964844 68.519531 61.964844 C 69.203125 61.964844 69.878906 62.03125 70.550781 62.164062 C 71.222656 62.296875 71.875 62.496094 72.507812 62.757812 C 73.136719 63.019531 73.738281 63.339844 74.308594 63.71875 C 74.875 64.097656 75.402344 64.53125 75.886719 65.011719 C 76.371094 65.496094 76.800781 66.019531 77.179688 66.589844 C 77.5625 67.15625 77.882812 67.757812 78.144531 68.386719 C 78.40625 69.019531 78.601562 69.671875 78.738281 70.339844 C 78.871094 71.011719 78.9375 71.6875 78.9375 72.371094 C 78.9375 73.054688 78.867188 73.730469 78.734375 74.398438 C 78.601562 75.070312 78.402344 75.71875 78.140625 76.351562 C 77.878906 76.980469 77.558594 77.582031 77.175781 78.148438 C 76.796875 78.71875 76.367188 79.242188 75.882812 79.726562 C 75.398438 80.207031 74.871094 80.640625 74.304688 81.019531 C 73.734375 81.398438 73.136719 81.71875 72.503906 81.980469 C 71.871094 82.242188 71.222656 82.441406 70.550781 82.574219 C 69.878906 82.707031 69.203125 82.777344 68.519531 82.777344 Z M 68.519531 64.9375 C 68.03125 64.9375 67.546875 64.984375 67.066406 65.082031 C 66.589844 65.175781 66.121094 65.316406 65.671875 65.503906 C 65.21875 65.691406 64.792969 65.917969 64.386719 66.191406 C 63.980469 66.460938 63.601562 66.769531 63.257812 67.113281 C 62.910156 67.460938 62.605469 67.835938 62.332031 68.242188 C 62.0625 68.648438 61.832031 69.074219 61.644531 69.527344 C 61.457031 69.976562 61.316406 70.441406 61.222656 70.921875 C 61.125 71.398438 61.078125 71.882812 61.078125 72.371094 C 61.078125 72.859375 61.125 73.34375 61.222656 73.820312 C 61.316406 74.300781 61.457031 74.765625 61.644531 75.214844 C 61.832031 75.667969 62.0625 76.09375 62.332031 76.5 C 62.605469 76.90625 62.910156 77.28125 63.257812 77.625 C 63.601562 77.972656 63.980469 78.28125 64.386719 78.550781 C 64.792969 78.824219 65.21875 79.050781 65.671875 79.238281 C 66.121094 79.425781 66.589844 79.566406 67.066406 79.660156 C 67.546875 79.757812 68.03125 79.804688 68.519531 79.804688 C 69.007812 79.804688 69.492188 79.757812 69.972656 79.660156 C 70.449219 79.566406 70.914062 79.425781 71.367188 79.238281 C 71.816406 79.050781 72.246094 78.824219 72.652344 78.550781 C 73.058594 78.28125 73.4375 77.972656 73.78125 77.625 C 74.125 77.28125 74.433594 76.90625 74.707031 76.5 C 74.976562 76.09375 75.207031 75.667969 75.394531 75.214844 C 75.582031 74.765625 75.722656 74.300781 75.816406 73.820312 C 75.914062 73.34375 75.960938 72.859375 75.960938 72.371094 C 75.960938 71.882812 75.910156 71.398438 75.816406 70.921875 C 75.71875 70.441406 75.578125 69.976562 75.390625 69.527344 C 75.203125 69.078125 74.976562 68.648438 74.703125 68.242188 C 74.433594 67.835938 74.125 67.460938 73.777344 67.117188 C 73.433594 66.773438 73.058594 66.464844 72.652344 66.191406 C 72.246094 65.921875 71.816406 65.691406 71.367188 65.507812 C 70.914062 65.320312 70.449219 65.175781 69.96875 65.082031 C 69.492188 64.988281 69.007812 64.9375 68.519531 64.9375 Z M 68.519531 64.9375 "/><path style=" stroke:none;fill-rule:nonzero;fill:rgb(0%,76.078796%,79.60968%);fill-opacity:1;" d="M 68.519531 78.316406 C 68.128906 78.316406 67.742188 78.277344 67.359375 78.203125 C 66.972656 78.125 66.601562 78.015625 66.242188 77.863281 C 65.878906 77.714844 65.535156 77.53125 65.210938 77.316406 C 64.886719 77.097656 64.585938 76.851562 64.308594 76.574219 C 64.035156 76.300781 63.785156 76 63.570312 75.675781 C 63.351562 75.351562 63.167969 75.007812 63.019531 74.644531 C 62.871094 74.285156 62.757812 73.914062 62.679688 73.53125 C 62.605469 73.148438 62.566406 72.761719 62.566406 72.371094 C 62.566406 71.980469 62.605469 71.59375 62.679688 71.210938 C 62.757812 70.828125 62.871094 70.457031 63.019531 70.09375 C 63.167969 69.734375 63.351562 69.390625 63.570312 69.066406 C 63.785156 68.742188 64.035156 68.441406 64.308594 68.167969 C 64.585938 67.890625 64.886719 67.644531 65.210938 67.425781 C 65.535156 67.210938 65.878906 67.027344 66.242188 66.878906 C 66.601562 66.726562 66.972656 66.613281 67.359375 66.539062 C 67.742188 66.460938 68.128906 66.425781 68.519531 66.425781 C 68.910156 66.425781 69.296875 66.460938 69.679688 66.539062 C 70.0625 66.613281 70.4375 66.726562 70.796875 66.878906 C 71.160156 67.027344 71.5 67.210938 71.828125 67.425781 C 72.152344 67.644531 72.453125 67.890625 72.730469 68.167969 C 73.003906 68.441406 73.25 68.742188 73.46875 69.066406 C 73.6875 69.390625 73.871094 69.734375 74.019531 70.09375 C 74.167969 70.457031 74.28125 70.828125 74.359375 71.210938 C 74.433594 71.59375 74.472656 71.980469 74.472656 72.371094 C 74.472656 72.761719 74.433594 73.148438 74.359375 73.53125 C 74.28125 73.914062 74.167969 74.285156 74.019531 74.644531 C 73.871094 75.007812 73.6875 75.351562 73.46875 75.675781 C 73.25 76 73.003906 76.300781 72.730469 76.574219 C 72.453125 76.851562 72.152344 77.097656 71.828125 77.316406 C 71.5 77.53125 71.160156 77.714844 70.796875 77.863281 C 70.4375 78.015625 70.0625 78.125 69.679688 78.203125 C 69.296875 78.277344 68.910156 78.316406 68.519531 78.316406 Z M 68.519531 69.398438 C 68.125 69.398438 67.746094 69.472656 67.378906 69.625 C 67.015625 69.773438 66.695312 69.988281 66.414062 70.269531 C 66.136719 70.546875 65.921875 70.867188 65.769531 71.234375 C 65.617188 71.597656 65.542969 71.976562 65.542969 72.371094 C 65.542969 72.765625 65.617188 73.144531 65.769531 73.507812 C 65.921875 73.871094 66.136719 74.195312 66.414062 74.472656 C 66.695312 74.753906 67.015625 74.96875 67.378906 75.117188 C 67.746094 75.269531 68.125 75.34375 68.519531 75.34375 C 68.914062 75.34375 69.292969 75.269531 69.660156 75.117188 C 70.023438 74.96875 70.34375 74.753906 70.625 74.472656 C 70.902344 74.195312 71.117188 73.871094 71.269531 73.507812 C 71.421875 73.144531 71.496094 72.765625 71.496094 72.371094 C 71.496094 71.976562 71.421875 71.597656 71.269531 71.234375 C 71.117188 70.867188 70.902344 70.546875 70.625 70.269531 C 70.34375 69.988281 70.023438 69.773438 69.660156 69.625 C 69.292969 69.472656 68.914062 69.398438 68.519531 69.398438 Z M 68.519531 69.398438 "/><path style=" stroke:none;fill-rule:nonzero;fill:rgb(0%,76.078796%,79.60968%);fill-opacity:1;" d="M 71.496094 87.238281 L 65.542969 87.238281 C 65.34375 87.238281 65.15625 87.199219 64.972656 87.125 C 64.789062 87.046875 64.628906 86.941406 64.492188 86.800781 C 64.351562 86.660156 64.242188 86.5 64.167969 86.320312 C 64.09375 86.136719 64.054688 85.949219 64.054688 85.75 L 64.054688 79.804688 L 67.03125 79.804688 L 67.03125 84.265625 L 70.007812 84.265625 L 70.007812 79.804688 L 72.984375 79.804688 L 72.984375 85.75 C 72.984375 85.949219 72.945312 86.136719 72.871094 86.320312 C 72.796875 86.5 72.6875 86.660156 72.546875 86.800781 C 72.410156 86.941406 72.246094 87.046875 72.066406 87.125 C 71.882812 87.199219 71.691406 87.238281 71.496094 87.238281 Z M 71.496094 87.238281 "/><path style=" stroke:none;fill-rule:nonzero;fill:rgb(0%,76.078796%,79.60968%);fill-opacity:1;" d="M 62.566406 93.183594 L 55.125 93.183594 C 54.441406 93.183594 53.765625 93.113281 53.09375 92.980469 C 52.421875 92.847656 51.773438 92.648438 51.140625 92.386719 C 50.507812 92.125 49.910156 91.804688 49.339844 91.425781 C 48.773438 91.046875 48.246094 90.613281 47.761719 90.132812 C 47.277344 89.648438 46.847656 89.125 46.46875 88.554688 C 46.085938 87.988281 45.765625 87.386719 45.503906 86.757812 C 45.242188 86.125 45.042969 85.476562 44.910156 84.804688 C 44.777344 84.136719 44.707031 83.460938 44.707031 82.777344 L 44.707031 72.371094 L 47.683594 72.371094 L 47.683594 82.777344 C 47.683594 83.265625 47.734375 83.75 47.828125 84.226562 C 47.925781 84.703125 48.066406 85.167969 48.253906 85.621094 C 48.441406 86.070312 48.667969 86.5 48.941406 86.90625 C 49.210938 87.308594 49.519531 87.683594 49.867188 88.03125 C 50.210938 88.375 50.585938 88.683594 50.992188 88.953125 C 51.398438 89.226562 51.828125 89.453125 52.277344 89.640625 C 52.730469 89.828125 53.195312 89.96875 53.675781 90.066406 C 54.152344 90.160156 54.636719 90.210938 55.125 90.210938 L 62.566406 90.210938 C 62.859375 90.210938 63.148438 90.179688 63.4375 90.125 C 63.726562 90.066406 64.003906 89.984375 64.273438 89.871094 C 64.546875 89.757812 64.804688 89.621094 65.046875 89.457031 C 65.289062 89.296875 65.515625 89.109375 65.722656 88.902344 C 65.929688 88.695312 66.117188 88.472656 66.277344 88.226562 C 66.441406 87.984375 66.578125 87.726562 66.691406 87.457031 C 66.804688 87.1875 66.886719 86.90625 66.945312 86.621094 C 67.003906 86.332031 67.03125 86.042969 67.03125 85.75 L 70.007812 85.75 C 70.007812 86.238281 69.957031 86.722656 69.863281 87.199219 C 69.765625 87.679688 69.625 88.144531 69.4375 88.59375 C 69.25 89.042969 69.023438 89.472656 68.75 89.878906 C 68.480469 90.285156 68.171875 90.660156 67.824219 91.003906 C 67.480469 91.347656 67.105469 91.65625 66.699219 91.929688 C 66.292969 92.199219 65.863281 92.429688 65.414062 92.613281 C 64.960938 92.800781 64.496094 92.945312 64.015625 93.039062 C 63.539062 93.132812 63.054688 93.183594 62.566406 93.183594 Z M 62.566406 93.183594 "/><path style=" stroke:none;fill-rule:nonzero;fill:rgb(0%,76.078796%,79.60968%);fill-opacity:1;" d="M 80.425781 70.882812 L 89.355469 70.882812 L 89.355469 73.859375 L 80.425781 73.859375 Z M 80.425781 70.882812 "/><path style=" stroke:none;fill-rule:nonzero;fill:rgb(0%,76.078796%,79.60968%);fill-opacity:1;" d="M 79.375 66.859375 L 85.328125 60.914062 L 87.429688 63.015625 L 81.476562 68.960938 Z M 79.375 66.859375 "/><path style=" stroke:none;fill-rule:nonzero;fill:rgb(0%,76.078796%,79.60968%);fill-opacity:1;" d="M 79.375 77.882812 L 81.476562 75.78125 L 87.429688 81.726562 L 85.328125 83.828125 Z M 79.375 77.882812 "/><path style=" stroke:none;fill-rule:nonzero;fill:rgb(0%,76.078796%,79.60968%);fill-opacity:1;" d="M 19.40625 91.695312 L 22.382812 91.695312 L 22.382812 94.671875 L 19.40625 94.671875 Z M 19.40625 91.695312 "/><path style=" stroke:none;fill-rule:nonzero;fill:rgb(0%,76.078796%,79.60968%);fill-opacity:1;" d="M 19.40625 67.910156 L 22.382812 67.910156 L 22.382812 88.722656 L 19.40625 88.722656 Z M 19.40625 67.910156 "/><g style="fill:rgb(0%,76.078796%,79.60968%);fill-opacity:1;"><g transform="translate(107.191865, 87.280679)"><path style="stroke:none;" d="M 43.90625 -21.875 C 43.90625 -18.71875 43.359375 -15.800781 42.265625 -13.125 C 41.179688 -10.457031 39.648438 -8.144531 37.671875 -6.1875 C 35.691406 -4.238281 33.304688 -2.71875 30.515625 -1.625 C 27.722656 -0.539062 24.625 0 21.21875 0 L 4.234375 0 L 4.234375 -43.734375 L 21.21875 -43.734375 C 24.625 -43.734375 27.722656 -43.179688 30.515625 -42.078125 C 33.304688 -40.984375 35.691406 -39.460938 37.671875 -37.515625 C 39.648438 -35.578125 41.179688 -33.269531 42.265625 -30.59375 C 43.359375 -27.925781 43.90625 -25.019531 43.90625 -21.875 Z M 33.53125 -21.875 C 33.53125 -24.039062 33.25 -25.992188 32.6875 -27.734375 C 32.125 -29.472656 31.316406 -30.945312 30.265625 -32.15625 C 29.210938 -33.375 27.925781 -34.304688 26.40625 -34.953125 C 24.882812 -35.597656 23.15625 -35.921875 21.21875 -35.921875 L 14.4375 -35.921875 L 14.4375 -7.796875 L 21.21875 -7.796875 C 23.15625 -7.796875 24.882812 -8.117188 26.40625 -8.765625 C 27.925781 -9.421875 29.210938 -10.351562 30.265625 -11.5625 C 31.316406 -12.78125 32.125 -14.257812 32.6875 -16 C 33.25 -17.738281 33.53125 -19.695312 33.53125 -21.875 Z M 33.53125 -21.875 "/></g></g><g style="fill:rgb(0%,76.078796%,79.60968%);fill-opacity:1;"><g transform="translate(149.630865, 87.280679)"><path style="stroke:none;" d="M 17.5 -31.609375 C 19.863281 -31.609375 22.015625 -31.238281 23.953125 -30.5 C 25.890625 -29.757812 27.550781 -28.695312 28.9375 -27.3125 C 30.332031 -25.9375 31.414062 -24.257812 32.1875 -22.28125 C 32.957031 -20.3125 33.34375 -18.097656 33.34375 -15.640625 C 33.34375 -13.160156 32.957031 -10.921875 32.1875 -8.921875 C 31.414062 -6.929688 30.332031 -5.238281 28.9375 -3.84375 C 27.550781 -2.457031 25.890625 -1.390625 23.953125 -0.640625 C 22.015625 0.109375 19.863281 0.484375 17.5 0.484375 C 15.113281 0.484375 12.945312 0.109375 11 -0.640625 C 9.050781 -1.390625 7.367188 -2.457031 5.953125 -3.84375 C 4.546875 -5.238281 3.457031 -6.929688 2.6875 -8.921875 C 1.914062 -10.921875 1.53125 -13.160156 1.53125 -15.640625 C 1.53125 -18.097656 1.914062 -20.3125 2.6875 -22.28125 C 3.457031 -24.257812 4.546875 -25.9375 5.953125 -27.3125 C 7.367188 -28.695312 9.050781 -29.757812 11 -30.5 C 12.945312 -31.238281 15.113281 -31.609375 17.5 -31.609375 Z M 17.5 -6.421875 C 19.632812 -6.421875 21.207031 -7.175781 22.21875 -8.6875 C 23.238281 -10.195312 23.75 -12.492188 23.75 -15.578125 C 23.75 -18.660156 23.238281 -20.953125 22.21875 -22.453125 C 21.207031 -23.953125 19.632812 -24.703125 17.5 -24.703125 C 15.300781 -24.703125 13.691406 -23.953125 12.671875 -22.453125 C 11.648438 -20.953125 11.140625 -18.660156 11.140625 -15.578125 C 11.140625 -12.492188 11.648438 -10.195312 12.671875 -8.6875 C 13.691406 -7.175781 15.300781 -6.421875 17.5 -6.421875 Z M 17.5 -6.421875 "/></g></g><g style="fill:rgb(0%,76.078796%,79.60968%);fill-opacity:1;"><g transform="translate(181.264911, 87.280679)"><path style="stroke:none;" d="M 26.03125 -23.75 C 25.75 -23.40625 25.476562 -23.128906 25.21875 -22.921875 C 24.957031 -22.722656 24.585938 -22.625 24.109375 -22.625 C 23.640625 -22.625 23.21875 -22.734375 22.84375 -22.953125 C 22.476562 -23.179688 22.066406 -23.429688 21.609375 -23.703125 C 21.148438 -23.972656 20.609375 -24.21875 19.984375 -24.4375 C 19.367188 -24.65625 18.597656 -24.765625 17.671875 -24.765625 C 16.535156 -24.765625 15.550781 -24.550781 14.71875 -24.125 C 13.894531 -23.707031 13.210938 -23.109375 12.671875 -22.328125 C 12.128906 -21.546875 11.726562 -20.585938 11.46875 -19.453125 C 11.207031 -18.328125 11.078125 -17.054688 11.078125 -15.640625 C 11.078125 -12.660156 11.648438 -10.367188 12.796875 -8.765625 C 13.953125 -7.160156 15.539062 -6.359375 17.5625 -6.359375 C 18.644531 -6.359375 19.5 -6.492188 20.125 -6.765625 C 20.757812 -7.035156 21.296875 -7.335938 21.734375 -7.671875 C 22.171875 -8.003906 22.570312 -8.304688 22.9375 -8.578125 C 23.3125 -8.859375 23.78125 -9 24.34375 -9 C 25.082031 -9 25.644531 -8.726562 26.03125 -8.1875 L 28.71875 -4.859375 C 27.757812 -3.765625 26.75 -2.867188 25.6875 -2.171875 C 24.632812 -1.484375 23.550781 -0.941406 22.4375 -0.546875 C 21.320312 -0.160156 20.203125 0.101562 19.078125 0.25 C 17.960938 0.40625 16.875 0.484375 15.8125 0.484375 C 13.914062 0.484375 12.101562 0.125 10.375 -0.59375 C 8.644531 -1.320312 7.125 -2.367188 5.8125 -3.734375 C 4.5 -5.109375 3.457031 -6.796875 2.6875 -8.796875 C 1.914062 -10.796875 1.53125 -13.078125 1.53125 -15.640625 C 1.53125 -17.878906 1.863281 -19.972656 2.53125 -21.921875 C 3.207031 -23.878906 4.195312 -25.570312 5.5 -27 C 6.8125 -28.425781 8.429688 -29.550781 10.359375 -30.375 C 12.296875 -31.195312 14.535156 -31.609375 17.078125 -31.609375 C 19.515625 -31.609375 21.65625 -31.21875 23.5 -30.4375 C 25.34375 -29.65625 27.003906 -28.515625 28.484375 -27.015625 Z M 26.03125 -23.75 "/></g></g><g style="fill:rgb(0%,76.078796%,79.60968%);fill-opacity:1;"><g transform="translate(207.226354, 87.280679)"><path style="stroke:none;" d="M 14.28125 0.484375 C 12.800781 0.484375 11.492188 0.269531 10.359375 -0.15625 C 9.234375 -0.59375 8.285156 -1.207031 7.515625 -2 C 6.742188 -2.789062 6.15625 -3.742188 5.75 -4.859375 C 5.351562 -5.984375 5.15625 -7.234375 5.15625 -8.609375 L 5.15625 -24.703125 L 2.515625 -24.703125 C 2.035156 -24.703125 1.625 -24.859375 1.28125 -25.171875 C 0.945312 -25.484375 0.78125 -25.9375 0.78125 -26.53125 L 0.78125 -30.171875 L 5.734375 -31.125 L 7.5625 -38.71875 C 7.800781 -39.675781 8.484375 -40.15625 9.609375 -40.15625 L 14.46875 -40.15625 L 14.46875 -31.0625 L 22.1875 -31.0625 L 22.1875 -24.703125 L 14.46875 -24.703125 L 14.46875 -9.25 C 14.46875 -8.53125 14.640625 -7.929688 14.984375 -7.453125 C 15.335938 -6.984375 15.847656 -6.75 16.515625 -6.75 C 16.847656 -6.75 17.128906 -6.785156 17.359375 -6.859375 C 17.585938 -6.929688 17.785156 -7.007812 17.953125 -7.09375 C 18.128906 -7.1875 18.289062 -7.265625 18.4375 -7.328125 C 18.59375 -7.398438 18.769531 -7.4375 18.96875 -7.4375 C 19.25 -7.4375 19.472656 -7.367188 19.640625 -7.234375 C 19.816406 -7.109375 19.992188 -6.910156 20.171875 -6.640625 L 22.984375 -2.21875 C 21.785156 -1.320312 20.4375 -0.644531 18.9375 -0.1875 C 17.4375 0.257812 15.882812 0.484375 14.28125 0.484375 Z M 14.28125 0.484375 "/></g></g><g style="fill:rgb(0%,76.078796%,79.60968%);fill-opacity:1;"><g transform="translate(227.03499, 87.280679)"><path style="stroke:none;" d="M 17.5 -31.609375 C 19.863281 -31.609375 22.015625 -31.238281 23.953125 -30.5 C 25.890625 -29.757812 27.550781 -28.695312 28.9375 -27.3125 C 30.332031 -25.9375 31.414062 -24.257812 32.1875 -22.28125 C 32.957031 -20.3125 33.34375 -18.097656 33.34375 -15.640625 C 33.34375 -13.160156 32.957031 -10.921875 32.1875 -8.921875 C 31.414062 -6.929688 30.332031 -5.238281 28.9375 -3.84375 C 27.550781 -2.457031 25.890625 -1.390625 23.953125 -0.640625 C 22.015625 0.109375 19.863281 0.484375 17.5 0.484375 C 15.113281 0.484375 12.945312 0.109375 11 -0.640625 C 9.050781 -1.390625 7.367188 -2.457031 5.953125 -3.84375 C 4.546875 -5.238281 3.457031 -6.929688 2.6875 -8.921875 C 1.914062 -10.921875 1.53125 -13.160156 1.53125 -15.640625 C 1.53125 -18.097656 1.914062 -20.3125 2.6875 -22.28125 C 3.457031 -24.257812 4.546875 -25.9375 5.953125 -27.3125 C 7.367188 -28.695312 9.050781 -29.757812 11 -30.5 C 12.945312 -31.238281 15.113281 -31.609375 17.5 -31.609375 Z M 17.5 -6.421875 C 19.632812 -6.421875 21.207031 -7.175781 22.21875 -8.6875 C 23.238281 -10.195312 23.75 -12.492188 23.75 -15.578125 C 23.75 -18.660156 23.238281 -20.953125 22.21875 -22.453125 C 21.207031 -23.953125 19.632812 -24.703125 17.5 -24.703125 C 15.300781 -24.703125 13.691406 -23.953125 12.671875 -22.453125 C 11.648438 -20.953125 11.140625 -18.660156 11.140625 -15.578125 C 11.140625 -12.492188 11.648438 -10.195312 12.671875 -8.6875 C 13.691406 -7.175781 15.300781 -6.421875 17.5 -6.421875 Z M 17.5 -6.421875 "/></g></g><g style="fill:rgb(0%,76.078796%,79.60968%);fill-opacity:1;"><g transform="translate(258.669039, 87.280679)"><path style="stroke:none;" d="M 11.859375 -26.328125 C 12.816406 -28.003906 13.921875 -29.320312 15.171875 -30.28125 C 16.421875 -31.25 17.859375 -31.734375 19.484375 -31.734375 C 20.878906 -31.734375 22.019531 -31.398438 22.90625 -30.734375 L 22.296875 -23.890625 C 22.203125 -23.453125 22.039062 -23.148438 21.8125 -22.984375 C 21.582031 -22.828125 21.265625 -22.75 20.859375 -22.75 C 20.703125 -22.75 20.492188 -22.757812 20.234375 -22.78125 C 19.972656 -22.800781 19.703125 -22.828125 19.421875 -22.859375 C 19.140625 -22.890625 18.851562 -22.914062 18.5625 -22.9375 C 18.269531 -22.96875 18.003906 -22.984375 17.765625 -22.984375 C 16.410156 -22.984375 15.328125 -22.625 14.515625 -21.90625 C 13.703125 -21.1875 13.015625 -20.1875 12.453125 -18.90625 L 12.453125 0 L 3.15625 0 L 3.15625 -31.125 L 8.671875 -31.125 C 9.128906 -31.125 9.515625 -31.082031 9.828125 -31 C 10.140625 -30.925781 10.398438 -30.800781 10.609375 -30.625 C 10.816406 -30.457031 10.972656 -30.234375 11.078125 -29.953125 C 11.191406 -29.671875 11.289062 -29.332031 11.375 -28.9375 Z M 11.859375 -26.328125 "/></g></g><g style="fill:rgb(0%,76.078796%,79.60968%);fill-opacity:1;"><g transform="translate(278.327604, 87.280679)"><path style="stroke:none;" d=""/></g></g><g style="fill:rgb(0%,76.078796%,79.60968%);fill-opacity:1;"><g transform="translate(288.952034, 87.280679)"><path style="stroke:none;" d="M 19.65625 -22.265625 C 22.300781 -22.265625 24.203125 -22.894531 25.359375 -24.15625 C 26.523438 -25.414062 27.109375 -27.179688 27.109375 -29.453125 C 27.109375 -30.453125 26.957031 -31.359375 26.65625 -32.171875 C 26.351562 -32.992188 25.894531 -33.695312 25.28125 -34.28125 C 24.675781 -34.875 23.90625 -35.332031 22.96875 -35.65625 C 22.039062 -35.976562 20.9375 -36.140625 19.65625 -36.140625 L 14.375 -36.140625 L 14.375 -22.265625 Z M 19.65625 -43.734375 C 22.738281 -43.734375 25.382812 -43.367188 27.59375 -42.640625 C 29.8125 -41.910156 31.632812 -40.90625 33.0625 -39.625 C 34.488281 -38.34375 35.539062 -36.832031 36.21875 -35.09375 C 36.90625 -33.351562 37.25 -31.472656 37.25 -29.453125 C 37.25 -27.265625 36.894531 -25.257812 36.1875 -23.4375 C 35.488281 -21.613281 34.421875 -20.050781 32.984375 -18.75 C 31.546875 -17.457031 29.71875 -16.445312 27.5 -15.71875 C 25.289062 -14.988281 22.675781 -14.625 19.65625 -14.625 L 14.375 -14.625 L 14.375 0 L 4.234375 0 L 4.234375 -43.734375 Z M 19.65625 -43.734375 "/></g></g><g style="fill:rgb(0%,76.078796%,79.60968%);fill-opacity:1;"><g transform="translate(323.887599, 87.280679)"><path style="stroke:none;" d="M 33.703125 -11.3125 C 33.941406 -11.3125 34.179688 -11.265625 34.421875 -11.171875 C 34.660156 -11.085938 34.894531 -10.9375 35.125 -10.71875 L 39.140625 -6.484375 C 37.378906 -4.179688 35.171875 -2.441406 32.515625 -1.265625 C 29.867188 -0.0976562 26.734375 0.484375 23.109375 0.484375 C 19.785156 0.484375 16.804688 -0.078125 14.171875 -1.203125 C 11.546875 -2.335938 9.316406 -3.898438 7.484375 -5.890625 C 5.660156 -7.890625 4.253906 -10.253906 3.265625 -12.984375 C 2.285156 -15.710938 1.796875 -18.675781 1.796875 -21.875 C 1.796875 -25.144531 2.328125 -28.144531 3.390625 -30.875 C 4.453125 -33.601562 5.941406 -35.957031 7.859375 -37.9375 C 9.785156 -39.914062 12.085938 -41.457031 14.765625 -42.5625 C 17.453125 -43.664062 20.40625 -44.21875 23.625 -44.21875 C 25.257812 -44.21875 26.800781 -44.070312 28.25 -43.78125 C 29.707031 -43.488281 31.066406 -43.085938 32.328125 -42.578125 C 33.585938 -42.066406 34.75 -41.453125 35.8125 -40.734375 C 36.875 -40.015625 37.8125 -39.234375 38.625 -38.390625 L 35.203125 -33.796875 C 34.984375 -33.515625 34.722656 -33.257812 34.421875 -33.03125 C 34.128906 -32.800781 33.710938 -32.6875 33.171875 -32.6875 C 32.804688 -32.6875 32.460938 -32.765625 32.140625 -32.921875 C 31.828125 -33.085938 31.488281 -33.285156 31.125 -33.515625 C 30.769531 -33.742188 30.375 -33.992188 29.9375 -34.265625 C 29.507812 -34.535156 29 -34.785156 28.40625 -35.015625 C 27.820312 -35.242188 27.132812 -35.4375 26.34375 -35.59375 C 25.550781 -35.757812 24.625 -35.84375 23.5625 -35.84375 C 21.882812 -35.84375 20.347656 -35.53125 18.953125 -34.90625 C 17.566406 -34.289062 16.367188 -33.382812 15.359375 -32.1875 C 14.347656 -31 13.566406 -29.539062 13.015625 -27.8125 C 12.460938 -26.082031 12.1875 -24.101562 12.1875 -21.875 C 12.1875 -19.632812 12.488281 -17.644531 13.09375 -15.90625 C 13.707031 -14.164062 14.539062 -12.695312 15.59375 -11.5 C 16.644531 -10.3125 17.867188 -9.40625 19.265625 -8.78125 C 20.671875 -8.164062 22.171875 -7.859375 23.765625 -7.859375 C 24.691406 -7.859375 25.535156 -7.90625 26.296875 -8 C 27.054688 -8.09375 27.765625 -8.242188 28.421875 -8.453125 C 29.085938 -8.660156 29.707031 -8.9375 30.28125 -9.28125 C 30.863281 -9.632812 31.457031 -10.082031 32.0625 -10.625 C 32.300781 -10.820312 32.554688 -10.984375 32.828125 -11.109375 C 33.109375 -11.242188 33.398438 -11.3125 33.703125 -11.3125 Z M 33.703125 -11.3125 "/></g></g><g style="fill:rgb(32.939148%,32.939148%,32.939148%);fill-opacity:1;"><g transform="translate(111.390648, 110.821685)"><path style="stroke:none;" d="M 3.6875 -13.9375 C 4.738281 -13.9375 5.515625 -13.625 6.015625 -13 C 6.515625 -12.375 6.765625 -11.535156 6.765625 -10.484375 L 6.765625 -10.109375 L 5.296875 -10.109375 L 5.296875 -10.5625 C 5.296875 -11.195312 5.171875 -11.6875 4.921875 -12.03125 C 4.679688 -12.375 4.285156 -12.546875 3.734375 -12.546875 C 3.179688 -12.546875 2.78125 -12.375 2.53125 -12.03125 C 2.28125 -11.6875 2.15625 -11.207031 2.15625 -10.59375 C 2.15625 -10.070312 2.269531 -9.617188 2.5 -9.234375 C 2.726562 -8.859375 3.007812 -8.507812 3.34375 -8.1875 C 3.6875 -7.863281 4.054688 -7.546875 4.453125 -7.234375 C 4.859375 -6.929688 5.234375 -6.59375 5.578125 -6.21875 C 5.921875 -5.851562 6.207031 -5.4375 6.4375 -4.96875 C 6.664062 -4.507812 6.78125 -3.957031 6.78125 -3.3125 C 6.78125 -2.257812 6.523438 -1.421875 6.015625 -0.796875 C 5.515625 -0.171875 4.734375 0.140625 3.671875 0.140625 C 2.609375 0.140625 1.828125 -0.171875 1.328125 -0.796875 C 0.828125 -1.421875 0.578125 -2.257812 0.578125 -3.3125 L 0.578125 -4.09375 L 2.015625 -4.09375 L 2.015625 -3.234375 C 2.015625 -2.597656 2.144531 -2.109375 2.40625 -1.765625 C 2.664062 -1.429688 3.070312 -1.265625 3.625 -1.265625 C 4.175781 -1.265625 4.582031 -1.429688 4.84375 -1.765625 C 5.113281 -2.109375 5.25 -2.597656 5.25 -3.234375 C 5.25 -3.742188 5.132812 -4.1875 4.90625 -4.5625 C 4.675781 -4.9375 4.390625 -5.285156 4.046875 -5.609375 C 3.703125 -5.929688 3.332031 -6.242188 2.9375 -6.546875 C 2.539062 -6.859375 2.171875 -7.195312 1.828125 -7.5625 C 1.492188 -7.9375 1.207031 -8.359375 0.96875 -8.828125 C 0.738281 -9.296875 0.625 -9.847656 0.625 -10.484375 C 0.625 -11.554688 0.875 -12.398438 1.375 -13.015625 C 1.875 -13.628906 2.644531 -13.9375 3.6875 -13.9375 Z M 3.6875 -13.9375 "/></g></g><g style="fill:rgb(32.939148%,32.939148%,32.939148%);fill-opacity:1;"><g transform="translate(121.090016, 110.821685)"><path style="stroke:none;" d="M 5.703125 -7.6875 L 5.703125 -6.3125 L 2.328125 -6.3125 L 2.328125 -1.40625 L 6.46875 -1.40625 L 6.46875 0 L 0.78125 0 L 0.78125 -13.796875 L 6.46875 -13.796875 L 6.46875 -12.40625 L 2.328125 -12.40625 L 2.328125 -7.6875 Z M 5.703125 -7.6875 "/></g></g><g style="fill:rgb(32.939148%,32.939148%,32.939148%);fill-opacity:1;"><g transform="translate(130.552841, 110.821685)"><path style="stroke:none;" d="M 3.859375 -13.796875 C 4.953125 -13.796875 5.738281 -13.523438 6.21875 -12.984375 C 6.695312 -12.453125 6.9375 -11.671875 6.9375 -10.640625 L 6.9375 -9.53125 C 6.9375 -8.757812 6.796875 -8.132812 6.515625 -7.65625 C 6.242188 -7.1875 5.8125 -6.863281 5.21875 -6.6875 C 5.851562 -6.5 6.300781 -6.15625 6.5625 -5.65625 C 6.820312 -5.164062 6.953125 -4.550781 6.953125 -3.8125 L 6.953125 -1.65625 C 6.953125 -1.351562 6.96875 -1.0625 7 -0.78125 C 7.03125 -0.5 7.109375 -0.238281 7.234375 0 L 5.671875 0 C 5.585938 -0.195312 5.523438 -0.410156 5.484375 -0.640625 C 5.441406 -0.867188 5.421875 -1.210938 5.421875 -1.671875 L 5.421875 -3.84375 C 5.421875 -4.625 5.242188 -5.160156 4.890625 -5.453125 C 4.546875 -5.742188 4.050781 -5.890625 3.40625 -5.890625 L 2.328125 -5.890625 L 2.328125 0 L 0.78125 0 L 0.78125 -13.796875 Z M 3.46875 -7.296875 C 4.082031 -7.296875 4.5625 -7.421875 4.90625 -7.671875 C 5.25 -7.929688 5.421875 -8.4375 5.421875 -9.1875 L 5.421875 -10.515625 C 5.421875 -11.140625 5.296875 -11.609375 5.046875 -11.921875 C 4.804688 -12.242188 4.398438 -12.40625 3.828125 -12.40625 L 2.328125 -12.40625 L 2.328125 -7.296875 Z M 3.46875 -7.296875 "/></g></g><g style="fill:rgb(32.939148%,32.939148%,32.939148%);fill-opacity:1;"><g transform="translate(140.685874, 110.821685)"><path style="stroke:none;" d="M 1.953125 -13.796875 L 4.203125 -1.796875 L 6.421875 -13.796875 L 7.84375 -13.796875 L 5.265625 0 L 3 0 L 0.390625 -13.796875 Z M 1.953125 -13.796875 "/></g></g><g style="fill:rgb(32.939148%,32.939148%,32.939148%);fill-opacity:1;"><g transform="translate(151.291981, 110.821685)"><path style="stroke:none;" d="M 2.328125 -13.796875 L 2.328125 0 L 0.78125 0 L 0.78125 -13.796875 Z M 2.328125 -13.796875 "/></g></g><g style="fill:rgb(32.939148%,32.939148%,32.939148%);fill-opacity:1;"><g transform="translate(156.773034, 110.821685)"><path style="stroke:none;" d="M 3.765625 -13.9375 C 4.828125 -13.9375 5.609375 -13.617188 6.109375 -12.984375 C 6.617188 -12.359375 6.875 -11.519531 6.875 -10.46875 L 6.875 -9.234375 L 5.421875 -9.234375 L 5.421875 -10.546875 C 5.421875 -11.179688 5.289062 -11.671875 5.03125 -12.015625 C 4.78125 -12.367188 4.375 -12.546875 3.8125 -12.546875 C 3.257812 -12.546875 2.847656 -12.367188 2.578125 -12.015625 C 2.316406 -11.671875 2.1875 -11.179688 2.1875 -10.546875 L 2.1875 -3.25 C 2.1875 -2.625 2.316406 -2.132812 2.578125 -1.78125 C 2.847656 -1.4375 3.257812 -1.265625 3.8125 -1.265625 C 4.375 -1.265625 4.78125 -1.4375 5.03125 -1.78125 C 5.289062 -2.132812 5.421875 -2.625 5.421875 -3.25 L 5.421875 -5.046875 L 6.875 -5.046875 L 6.875 -3.328125 C 6.875 -2.273438 6.617188 -1.429688 6.109375 -0.796875 C 5.609375 -0.171875 4.828125 0.140625 3.765625 0.140625 C 2.710938 0.140625 1.929688 -0.171875 1.421875 -0.796875 C 0.921875 -1.429688 0.671875 -2.273438 0.671875 -3.328125 L 0.671875 -10.46875 C 0.671875 -11 0.734375 -11.476562 0.859375 -11.90625 C 0.984375 -12.332031 1.171875 -12.695312 1.421875 -13 C 1.679688 -13.300781 2.003906 -13.53125 2.390625 -13.6875 C 2.785156 -13.851562 3.242188 -13.9375 3.765625 -13.9375 Z M 3.765625 -13.9375 "/></g></g><g style="fill:rgb(32.939148%,32.939148%,32.939148%);fill-opacity:1;"><g transform="translate(166.630092, 110.821685)"><path style="stroke:none;" d="M 2.328125 -13.796875 L 2.328125 0 L 0.78125 0 L 0.78125 -13.796875 Z M 2.328125 -13.796875 "/></g></g><g style="fill:rgb(32.939148%,32.939148%,32.939148%);fill-opacity:1;"><g transform="translate(172.111145, 110.821685)"><path style="stroke:none;" d="M 0.671875 -10.46875 C 0.671875 -11.53125 0.929688 -12.375 1.453125 -13 C 1.972656 -13.625 2.765625 -13.9375 3.828125 -13.9375 C 4.890625 -13.9375 5.679688 -13.625 6.203125 -13 C 6.734375 -12.375 7 -11.53125 7 -10.46875 L 7 -3.328125 C 7 -2.273438 6.734375 -1.429688 6.203125 -0.796875 C 5.679688 -0.171875 4.890625 0.140625 3.828125 0.140625 C 2.765625 0.140625 1.972656 -0.171875 1.453125 -0.796875 C 0.929688 -1.429688 0.671875 -2.273438 0.671875 -3.328125 Z M 2.1875 -3.25 C 2.1875 -2.625 2.320312 -2.132812 2.59375 -1.78125 C 2.863281 -1.4375 3.273438 -1.265625 3.828125 -1.265625 C 4.390625 -1.265625 4.800781 -1.4375 5.0625 -1.78125 C 5.332031 -2.132812 5.46875 -2.625 5.46875 -3.25 L 5.46875 -10.546875 C 5.46875 -11.179688 5.332031 -11.671875 5.0625 -12.015625 C 4.800781 -12.367188 4.390625 -12.546875 3.828125 -12.546875 C 3.273438 -12.546875 2.863281 -12.367188 2.59375 -12.015625 C 2.320312 -11.671875 2.1875 -11.179688 2.1875 -10.546875 Z M 2.1875 -3.25 "/></g></g><g style="fill:rgb(32.939148%,32.939148%,32.939148%);fill-opacity:1;"><g transform="translate(182.145611, 110.821685)"><path style="stroke:none;" d=""/></g></g><g style="fill:rgb(32.939148%,32.939148%,32.939148%);fill-opacity:1;"><g transform="translate(187.567528, 110.821685)"><path style="stroke:none;" d="M 2.796875 0 L 2.796875 -12.40625 L 0.25 -12.40625 L 0.25 -13.796875 L 6.875 -13.796875 L 6.875 -12.40625 L 4.34375 -12.40625 L 4.34375 0 Z M 2.796875 0 "/></g></g><g style="fill:rgb(32.939148%,32.939148%,32.939148%);fill-opacity:1;"><g transform="translate(197.089488, 110.821685)"><path style="stroke:none;" d="M 5.578125 -16.609375 L 3.75 -14.578125 L 2.6875 -14.578125 L 4.0625 -16.609375 Z M 5.703125 -7.6875 L 5.703125 -6.3125 L 2.328125 -6.3125 L 2.328125 -1.40625 L 6.46875 -1.40625 L 6.46875 0 L 0.78125 0 L 0.78125 -13.796875 L 6.46875 -13.796875 L 6.46875 -12.40625 L 2.328125 -12.40625 L 2.328125 -7.6875 Z M 5.703125 -7.6875 "/></g></g><g style="fill:rgb(32.939148%,32.939148%,32.939148%);fill-opacity:1;"><g transform="translate(206.552313, 110.821685)"><path style="stroke:none;" d="M 3.765625 -13.9375 C 4.828125 -13.9375 5.609375 -13.617188 6.109375 -12.984375 C 6.617188 -12.359375 6.875 -11.519531 6.875 -10.46875 L 6.875 -9.234375 L 5.421875 -9.234375 L 5.421875 -10.546875 C 5.421875 -11.179688 5.289062 -11.671875 5.03125 -12.015625 C 4.78125 -12.367188 4.375 -12.546875 3.8125 -12.546875 C 3.257812 -12.546875 2.847656 -12.367188 2.578125 -12.015625 C 2.316406 -11.671875 2.1875 -11.179688 2.1875 -10.546875 L 2.1875 -3.25 C 2.1875 -2.625 2.316406 -2.132812 2.578125 -1.78125 C 2.847656 -1.4375 3.257812 -1.265625 3.8125 -1.265625 C 4.375 -1.265625 4.78125 -1.4375 5.03125 -1.78125 C 5.289062 -2.132812 5.421875 -2.625 5.421875 -3.25 L 5.421875 -5.046875 L 6.875 -5.046875 L 6.875 -3.328125 C 6.875 -2.273438 6.617188 -1.429688 6.109375 -0.796875 C 5.609375 -0.171875 4.828125 0.140625 3.765625 0.140625 C 2.710938 0.140625 1.929688 -0.171875 1.421875 -0.796875 C 0.921875 -1.429688 0.671875 -2.273438 0.671875 -3.328125 L 0.671875 -10.46875 C 0.671875 -11 0.734375 -11.476562 0.859375 -11.90625 C 0.984375 -12.332031 1.171875 -12.695312 1.421875 -13 C 1.679688 -13.300781 2.003906 -13.53125 2.390625 -13.6875 C 2.785156 -13.851562 3.242188 -13.9375 3.765625 -13.9375 Z M 3.765625 -13.9375 "/></g></g><g style="fill:rgb(32.939148%,32.939148%,32.939148%);fill-opacity:1;"><g transform="translate(216.409371, 110.821685)"><path style="stroke:none;" d="M 2.15625 0 L 0.765625 0 L 0.765625 -13.796875 L 2.71875 -13.796875 L 5.921875 -3.828125 L 5.921875 -13.796875 L 7.28125 -13.796875 L 7.28125 0 L 5.671875 0 L 2.15625 -11.15625 Z M 2.15625 0 "/></g></g><g style="fill:rgb(32.939148%,32.939148%,32.939148%);fill-opacity:1;"><g transform="translate(226.838065, 110.821685)"><path style="stroke:none;" d="M 2.328125 -13.796875 L 2.328125 0 L 0.78125 0 L 0.78125 -13.796875 Z M 2.328125 -13.796875 "/></g></g><g style="fill:rgb(32.939148%,32.939148%,32.939148%);fill-opacity:1;"><g transform="translate(232.319111, 110.821685)"><path style="stroke:none;" d="M 3.765625 -13.9375 C 4.828125 -13.9375 5.609375 -13.617188 6.109375 -12.984375 C 6.617188 -12.359375 6.875 -11.519531 6.875 -10.46875 L 6.875 -9.234375 L 5.421875 -9.234375 L 5.421875 -10.546875 C 5.421875 -11.179688 5.289062 -11.671875 5.03125 -12.015625 C 4.78125 -12.367188 4.375 -12.546875 3.8125 -12.546875 C 3.257812 -12.546875 2.847656 -12.367188 2.578125 -12.015625 C 2.316406 -11.671875 2.1875 -11.179688 2.1875 -10.546875 L 2.1875 -3.25 C 2.1875 -2.625 2.316406 -2.132812 2.578125 -1.78125 C 2.847656 -1.4375 3.257812 -1.265625 3.8125 -1.265625 C 4.375 -1.265625 4.78125 -1.4375 5.03125 -1.78125 C 5.289062 -2.132812 5.421875 -2.625 5.421875 -3.25 L 5.421875 -5.046875 L 6.875 -5.046875 L 6.875 -3.328125 C 6.875 -2.273438 6.617188 -1.429688 6.109375 -0.796875 C 5.609375 -0.171875 4.828125 0.140625 3.765625 0.140625 C 2.710938 0.140625 1.929688 -0.171875 1.421875 -0.796875 C 0.921875 -1.429688 0.671875 -2.273438 0.671875 -3.328125 L 0.671875 -10.46875 C 0.671875 -11 0.734375 -11.476562 0.859375 -11.90625 C 0.984375 -12.332031 1.171875 -12.695312 1.421875 -13 C 1.679688 -13.300781 2.003906 -13.53125 2.390625 -13.6875 C 2.785156 -13.851562 3.242188 -13.9375 3.765625 -13.9375 Z M 3.765625 -13.9375 "/></g></g><g style="fill:rgb(32.939148%,32.939148%,32.939148%);fill-opacity:1;"><g transform="translate(242.176176, 110.821685)"><path style="stroke:none;" d="M 0.671875 -10.46875 C 0.671875 -11.53125 0.929688 -12.375 1.453125 -13 C 1.972656 -13.625 2.765625 -13.9375 3.828125 -13.9375 C 4.890625 -13.9375 5.679688 -13.625 6.203125 -13 C 6.734375 -12.375 7 -11.53125 7 -10.46875 L 7 -3.328125 C 7 -2.273438 6.734375 -1.429688 6.203125 -0.796875 C 5.679688 -0.171875 4.890625 0.140625 3.828125 0.140625 C 2.765625 0.140625 1.972656 -0.171875 1.453125 -0.796875 C 0.929688 -1.429688 0.671875 -2.273438 0.671875 -3.328125 Z M 2.1875 -3.25 C 2.1875 -2.625 2.320312 -2.132812 2.59375 -1.78125 C 2.863281 -1.4375 3.273438 -1.265625 3.828125 -1.265625 C 4.390625 -1.265625 4.800781 -1.4375 5.0625 -1.78125 C 5.332031 -2.132812 5.46875 -2.625 5.46875 -3.25 L 5.46875 -10.546875 C 5.46875 -11.179688 5.332031 -11.671875 5.0625 -12.015625 C 4.800781 -12.367188 4.390625 -12.546875 3.828125 -12.546875 C 3.273438 -12.546875 2.863281 -12.367188 2.59375 -12.015625 C 2.320312 -11.671875 2.1875 -11.179688 2.1875 -10.546875 Z M 2.1875 -3.25 "/></g></g><g style="fill:rgb(32.939148%,32.939148%,32.939148%);fill-opacity:1;"><g transform="translate(252.210648, 110.821685)"><path style="stroke:none;" d=""/></g></g><g style="fill:rgb(32.939148%,32.939148%,32.939148%);fill-opacity:1;"><g transform="translate(257.632559, 110.821685)"><path style="stroke:none;" d="M 3.8125 -13.796875 C 4.894531 -13.796875 5.679688 -13.5 6.171875 -12.90625 C 6.660156 -12.3125 6.90625 -11.488281 6.90625 -10.4375 L 6.90625 -8.78125 C 6.90625 -7.675781 6.644531 -6.84375 6.125 -6.28125 C 5.601562 -5.71875 4.789062 -5.4375 3.6875 -5.4375 L 2.328125 -5.4375 L 2.328125 0 L 0.78125 0 L 0.78125 -13.796875 Z M 3.6875 -6.828125 C 4.269531 -6.828125 4.695312 -6.96875 4.96875 -7.25 C 5.25 -7.53125 5.390625 -8.003906 5.390625 -8.671875 L 5.390625 -10.515625 C 5.390625 -11.140625 5.265625 -11.609375 5.015625 -11.921875 C 4.773438 -12.242188 4.375 -12.40625 3.8125 -12.40625 L 2.328125 -12.40625 L 2.328125 -6.828125 Z M 3.6875 -6.828125 "/></g></g><g style="fill:rgb(32.939148%,32.939148%,32.939148%);fill-opacity:1;"><g transform="translate(267.371352, 110.821685)"><path style="stroke:none;" d="M 3.859375 -13.796875 C 4.953125 -13.796875 5.738281 -13.523438 6.21875 -12.984375 C 6.695312 -12.453125 6.9375 -11.671875 6.9375 -10.640625 L 6.9375 -9.53125 C 6.9375 -8.757812 6.796875 -8.132812 6.515625 -7.65625 C 6.242188 -7.1875 5.8125 -6.863281 5.21875 -6.6875 C 5.851562 -6.5 6.300781 -6.15625 6.5625 -5.65625 C 6.820312 -5.164062 6.953125 -4.550781 6.953125 -3.8125 L 6.953125 -1.65625 C 6.953125 -1.351562 6.96875 -1.0625 7 -0.78125 C 7.03125 -0.5 7.109375 -0.238281 7.234375 0 L 5.671875 0 C 5.585938 -0.195312 5.523438 -0.410156 5.484375 -0.640625 C 5.441406 -0.867188 5.421875 -1.210938 5.421875 -1.671875 L 5.421875 -3.84375 C 5.421875 -4.625 5.242188 -5.160156 4.890625 -5.453125 C 4.546875 -5.742188 4.050781 -5.890625 3.40625 -5.890625 L 2.328125 -5.890625 L 2.328125 0 L 0.78125 0 L 0.78125 -13.796875 Z M 3.46875 -7.296875 C 4.082031 -7.296875 4.5625 -7.421875 4.90625 -7.671875 C 5.25 -7.929688 5.421875 -8.4375 5.421875 -9.1875 L 5.421875 -10.515625 C 5.421875 -11.140625 5.296875 -11.609375 5.046875 -11.921875 C 4.804688 -12.242188 4.398438 -12.40625 3.828125 -12.40625 L 2.328125 -12.40625 L 2.328125 -7.296875 Z M 3.46875 -7.296875 "/></g></g><g style="fill:rgb(32.939148%,32.939148%,32.939148%);fill-opacity:1;"><g transform="translate(277.504392, 110.821685)"><path style="stroke:none;" d="M 0.671875 -10.46875 C 0.671875 -11.53125 0.929688 -12.375 1.453125 -13 C 1.972656 -13.625 2.765625 -13.9375 3.828125 -13.9375 C 4.890625 -13.9375 5.679688 -13.625 6.203125 -13 C 6.734375 -12.375 7 -11.53125 7 -10.46875 L 7 -3.328125 C 7 -2.273438 6.734375 -1.429688 6.203125 -0.796875 C 5.679688 -0.171875 4.890625 0.140625 3.828125 0.140625 C 2.765625 0.140625 1.972656 -0.171875 1.453125 -0.796875 C 0.929688 -1.429688 0.671875 -2.273438 0.671875 -3.328125 Z M 2.1875 -3.25 C 2.1875 -2.625 2.320312 -2.132812 2.59375 -1.78125 C 2.863281 -1.4375 3.273438 -1.265625 3.828125 -1.265625 C 4.390625 -1.265625 4.800781 -1.4375 5.0625 -1.78125 C 5.332031 -2.132812 5.46875 -2.625 5.46875 -3.25 L 5.46875 -10.546875 C 5.46875 -11.179688 5.332031 -11.671875 5.0625 -12.015625 C 4.800781 -12.367188 4.390625 -12.546875 3.828125 -12.546875 C 3.273438 -12.546875 2.863281 -12.367188 2.59375 -12.015625 C 2.320312 -11.671875 2.1875 -11.179688 2.1875 -10.546875 Z M 2.1875 -3.25 "/></g></g><g style="fill:rgb(32.939148%,32.939148%,32.939148%);fill-opacity:1;"><g transform="translate(287.538864, 110.821685)"><path style="stroke:none;" d="M 5.5 -7.375 L 5.5 -5.96875 L 2.328125 -5.96875 L 2.328125 0 L 0.78125 0 L 0.78125 -13.796875 L 6.265625 -13.796875 L 6.265625 -12.40625 L 2.328125 -12.40625 L 2.328125 -7.375 Z M 5.5 -7.375 "/></g></g><g style="fill:rgb(32.939148%,32.939148%,32.939148%);fill-opacity:1;"><g transform="translate(296.60746, 110.821685)"><path style="stroke:none;" d="M 5.703125 -7.6875 L 5.703125 -6.3125 L 2.328125 -6.3125 L 2.328125 -1.40625 L 6.46875 -1.40625 L 6.46875 0 L 0.78125 0 L 0.78125 -13.796875 L 6.46875 -13.796875 L 6.46875 -12.40625 L 2.328125 -12.40625 L 2.328125 -7.6875 Z M 5.703125 -7.6875 "/></g></g><g style="fill:rgb(32.939148%,32.939148%,32.939148%);fill-opacity:1;"><g transform="translate(306.070279, 110.821685)"><path style="stroke:none;" d="M 3.6875 -13.9375 C 4.738281 -13.9375 5.515625 -13.625 6.015625 -13 C 6.515625 -12.375 6.765625 -11.535156 6.765625 -10.484375 L 6.765625 -10.109375 L 5.296875 -10.109375 L 5.296875 -10.5625 C 5.296875 -11.195312 5.171875 -11.6875 4.921875 -12.03125 C 4.679688 -12.375 4.285156 -12.546875 3.734375 -12.546875 C 3.179688 -12.546875 2.78125 -12.375 2.53125 -12.03125 C 2.28125 -11.6875 2.15625 -11.207031 2.15625 -10.59375 C 2.15625 -10.070312 2.269531 -9.617188 2.5 -9.234375 C 2.726562 -8.859375 3.007812 -8.507812 3.34375 -8.1875 C 3.6875 -7.863281 4.054688 -7.546875 4.453125 -7.234375 C 4.859375 -6.929688 5.234375 -6.59375 5.578125 -6.21875 C 5.921875 -5.851562 6.207031 -5.4375 6.4375 -4.96875 C 6.664062 -4.507812 6.78125 -3.957031 6.78125 -3.3125 C 6.78125 -2.257812 6.523438 -1.421875 6.015625 -0.796875 C 5.515625 -0.171875 4.734375 0.140625 3.671875 0.140625 C 2.609375 0.140625 1.828125 -0.171875 1.328125 -0.796875 C 0.828125 -1.421875 0.578125 -2.257812 0.578125 -3.3125 L 0.578125 -4.09375 L 2.015625 -4.09375 L 2.015625 -3.234375 C 2.015625 -2.597656 2.144531 -2.109375 2.40625 -1.765625 C 2.664062 -1.429688 3.070312 -1.265625 3.625 -1.265625 C 4.175781 -1.265625 4.582031 -1.429688 4.84375 -1.765625 C 5.113281 -2.109375 5.25 -2.597656 5.25 -3.234375 C 5.25 -3.742188 5.132812 -4.1875 4.90625 -4.5625 C 4.675781 -4.9375 4.390625 -5.285156 4.046875 -5.609375 C 3.703125 -5.929688 3.332031 -6.242188 2.9375 -6.546875 C 2.539062 -6.859375 2.171875 -7.195312 1.828125 -7.5625 C 1.492188 -7.9375 1.207031 -8.359375 0.96875 -8.828125 C 0.738281 -9.296875 0.625 -9.847656 0.625 -10.484375 C 0.625 -11.554688 0.875 -12.398438 1.375 -13.015625 C 1.875 -13.628906 2.644531 -13.9375 3.6875 -13.9375 Z M 3.6875 -13.9375 "/></g></g><g style="fill:rgb(32.939148%,32.939148%,32.939148%);fill-opacity:1;"><g transform="translate(315.76964, 110.821685)"><path style="stroke:none;" d="M 2.328125 -13.796875 L 2.328125 0 L 0.78125 0 L 0.78125 -13.796875 Z M 2.328125 -13.796875 "/></g></g><g style="fill:rgb(32.939148%,32.939148%,32.939148%);fill-opacity:1;"><g transform="translate(321.250687, 110.821685)"><path style="stroke:none;" d="M 0.671875 -10.46875 C 0.671875 -11.53125 0.929688 -12.375 1.453125 -13 C 1.972656 -13.625 2.765625 -13.9375 3.828125 -13.9375 C 4.890625 -13.9375 5.679688 -13.625 6.203125 -13 C 6.734375 -12.375 7 -11.53125 7 -10.46875 L 7 -3.328125 C 7 -2.273438 6.734375 -1.429688 6.203125 -0.796875 C 5.679688 -0.171875 4.890625 0.140625 3.828125 0.140625 C 2.765625 0.140625 1.972656 -0.171875 1.453125 -0.796875 C 0.929688 -1.429688 0.671875 -2.273438 0.671875 -3.328125 Z M 2.1875 -3.25 C 2.1875 -2.625 2.320312 -2.132812 2.59375 -1.78125 C 2.863281 -1.4375 3.273438 -1.265625 3.828125 -1.265625 C 4.390625 -1.265625 4.800781 -1.4375 5.0625 -1.78125 C 5.332031 -2.132812 5.46875 -2.625 5.46875 -3.25 L 5.46875 -10.546875 C 5.46875 -11.179688 5.332031 -11.671875 5.0625 -12.015625 C 4.800781 -12.367188 4.390625 -12.546875 3.828125 -12.546875 C 3.273438 -12.546875 2.863281 -12.367188 2.59375 -12.015625 C 2.320312 -11.671875 2.1875 -11.179688 2.1875 -10.546875 Z M 2.1875 -3.25 "/></g></g><g style="fill:rgb(32.939148%,32.939148%,32.939148%);fill-opacity:1;"><g transform="translate(331.285159, 110.821685)"><path style="stroke:none;" d="M 2.15625 0 L 0.765625 0 L 0.765625 -13.796875 L 2.71875 -13.796875 L 5.921875 -3.828125 L 5.921875 -13.796875 L 7.28125 -13.796875 L 7.28125 0 L 5.671875 0 L 2.15625 -11.15625 Z M 2.15625 0 "/></g></g><g style="fill:rgb(32.939148%,32.939148%,32.939148%);fill-opacity:1;"><g transform="translate(341.713852, 110.821685)"><path style="stroke:none;" d="M 2.34375 -2.78125 L 1.8125 0 L 0.390625 0 L 3.03125 -13.796875 L 5.265625 -13.796875 L 7.90625 0 L 6.375 0 L 5.84375 -2.78125 Z M 2.546875 -4.09375 L 5.625 -4.09375 L 4.0625 -12.0625 Z M 2.546875 -4.09375 "/></g></g><g style="fill:rgb(32.939148%,32.939148%,32.939148%);fill-opacity:1;"><g transform="translate(352.398817, 110.821685)"><path style="stroke:none;" d="M 0.78125 0 L 0.78125 -13.796875 L 2.328125 -13.796875 L 2.328125 -1.40625 L 6.265625 -1.40625 L 6.265625 0 Z M 0.78125 0 "/></g></g></g></svg>